<?xml version="1.0" encoding="UTF-8"?>
<!DOCTYPE svg PUBLIC "-//W3C//DTD SVG 1.1//EN" "http://www.w3.org/Graphics/SVG/1.1/DTD/svg11.dtd">
<!-- Creator: CorelDRAW X7 -->
<svg xmlns="http://www.w3.org/2000/svg" xml:space="preserve" width="1200px" height="1200px" version="1.1" style="shape-rendering:geometricPrecision; text-rendering:geometricPrecision; image-rendering:optimizeQuality; fill-rule:evenodd; clip-rule:evenodd"
viewBox="0 0 1200 1200"
 xmlns:xlink="http://www.w3.org/1999/xlink">
 <defs>
  <style type="text/css">
   <![CDATA[
    .str0 {stroke:#A1A1A1;stroke-width:2.95276}
    .str3 {stroke:#0E78B5;stroke-width:2.95276}
    .str1 {stroke:#0E78B5;stroke-width:2.95276}
    .str2 {stroke:#D59961;stroke-width:2.95276;stroke-linecap:round;stroke-linejoin:round}
    .str4 {stroke:#0E78B5;stroke-width:5.90552;stroke-linecap:round;stroke-dasharray:11.811047 29.527617}
    .fil3 {fill:none}
    .fil2 {fill:#FEFEFE}
    .fil4 {fill:#FEFEFE}
    .fil5 {fill:#FCE0AE}
    .fil6 {fill:#EFF3F8}
    .fil1 {fill:#E1F2FC}
    .fil7 {fill:#E1F2FC}
    .fil9 {fill:#91D3F5}
    .fil12 {fill:#91D3F5}
    .fil10 {fill:#00A2E9}
    .fil8 {fill:#00A2E9}
    .fil11 {fill:#EFF3F8;fill-rule:nonzero}
    .fil0 {fill:#91D3F5;fill-opacity:0.250980}
   ]]>
  </style>
 </defs>
 <g id="Layer_x0020_1">
  <metadata id="CorelCorpID_0Corel-Layer"/>
  <g id="_864843144">
   <g>
    <path class="fil0" d="M599 38c310,0 561,251 561,561 0,310 -251,561 -561,561 -310,0 -561,-251 -561,-561 0,-310 251,-561 561,-561z"/>
    <path class="fil0" d="M599 160c-243,0 -439,196 -439,439 0,242 196,439 439,439 242,0 439,-197 439,-439 0,-243 -197,-439 -439,-439z"/>
    <path class="fil0" d="M599 283c174,0 316,141 316,316 0,174 -142,316 -316,316 -175,0 -316,-142 -316,-316 0,-175 141,-316 316,-316z"/>
    <path class="fil0" d="M599 401c109,0 198,89 198,198 0,109 -89,198 -198,198 -109,0 -198,-89 -198,-198 0,-109 89,-198 198,-198z"/>
   </g>
   <rect class="fil1 str0" x="371" y="201" width="455" height="796" rx="58" ry="65"/>
   <path class="fil2" d="M748 201l20 0c32,0 59,26 59,58l0 680c0,32 -27,58 -59,58l-20 0c32,0 59,-26 59,-58l0 -680c0,-32 -27,-58 -59,-58z"/>
   <rect class="fil3 str1" x="371" y="201" width="455" height="796" rx="58" ry="65"/>
   <circle class="fil3 str0" cx="599" cy="940" r="35"/>
   <path class="fil2" d="M599 905c19,0 35,16 35,35 0,19 -16,34 -35,34 -2,0 -4,0 -6,0 16,-3 29,-17 29,-34 0,-17 -13,-31 -29,-34 2,-1 4,-1 6,-1z"/>
   <circle class="fil3 str1" cx="599" cy="940" r="35"/>
   <rect class="fil3 str0" x="550" y="248" width="97.2876" height="19.7414" rx="12" ry="10"/>
   <path class="fil2" d="M622 248l15 0c6,0 10,5 10,10l0 0c0,5 -4,10 -10,10l-15 0c5,0 9,-5 9,-10l0 0c0,-5 -4,-10 -9,-10z"/>
   <rect class="fil3 str1" x="550" y="248" width="97.2876" height="19.7414" rx="12" ry="10"/>
   <rect class="fil2" x="398" y="315" width="18.926" height="567.411"/>
   <rect class="fil4 str1" x="417" y="315" width="363" height="567"/>
   <g>
    <path class="fil5 str2" d="M128 879c45,-18 37,-9 55,-54 18,45 9,36 54,54 -45,19 -36,10 -54,55 -18,-45 -10,-36 -55,-55z"/>
    <path class="fil2" d="M183 825c18,45 9,36 54,54 -45,19 -36,10 -54,55 0,-49 16,-47 43,-55 -27,-7 -43,-8 -43,-54z"/>
    <path class="fil3 str2" d="M128 879c45,-18 37,-9 55,-54 18,45 9,36 54,54 -45,19 -36,10 -54,55 -18,-45 -10,-36 -55,-55z"/>
   </g>
   <rect class="fil6" x="438" y="335" width="323" height="116"/>
   <rect class="fil6" x="438" y="472" width="323" height="116"/>
   <rect class="fil6" x="438" y="608" width="323" height="116"/>
   <rect class="fil6" x="438" y="745" width="323" height="116"/>
   <path class="fil7 str1" d="M725 562c-43,42 -43,111 0,153 38,38 97,42 139,12l24 24 27 -26 -24 -24c30,-42 26,-101 -12,-139 -43,-43 -112,-43 -154,0zm26 26c-27,28 -27,73 0,101 28,28 73,28 101,0 28,-28 28,-73 0,-101 -28,-28 -73,-28 -101,0z"/>
   <path class="fil2" d="M725 562c-7,7 -13,15 -18,23 3,-4 7,-8 11,-12 42,-43 111,-43 154,0 38,38 42,97 12,139l21 22 10 -9 -24 -24c30,-42 26,-101 -12,-139 -43,-43 -112,-43 -154,0zm14 44c-14,27 -10,60 12,83 28,28 73,28 101,0 2,-2 4,-4 6,-7 -3,7 -8,13 -13,18 -28,28 -73,28 -101,0 -25,-26 -27,-66 -5,-94z"/>
   <path class="fil3 str1" d="M725 562c-43,42 -43,111 0,153 38,38 97,42 139,12l24 24 27 -26 -24 -24c30,-42 26,-101 -12,-139 -43,-43 -112,-43 -154,0zm26 26c-27,28 -27,73 0,101 28,28 73,28 101,0 28,-28 28,-73 0,-101 -28,-28 -73,-28 -101,0z"/>
   <g>
    <path class="fil8 str3" d="M912 727l-22 22c-7,7 -7,19 0,26l92 92c13,13 35,13 48,0l0 0c13,-13 13,-35 0,-48l-91 -92c-8,-7 -20,-7 -27,0z"/>
    <path class="fil9" d="M912 727l-8 8c7,-7 19,-7 26,0l92 92c12,12 13,30 4,44 1,-2 3,-3 4,-4l0 0c13,-13 13,-35 0,-48l-91 -92c-8,-7 -20,-7 -27,0z"/>
    <path class="fil3 str3" d="M912 727l-22 22c-7,7 -7,19 0,26l92 92c13,13 35,13 48,0l0 0c13,-13 13,-35 0,-48l-91 -92c-8,-7 -20,-7 -27,0z"/>
   </g>
   <path class="fil10 str1" d="M46 542l-34 -58c-5,-10 -1,-17 8,-23l186 -107c10,-6 15,-7 24,-4l64 23c25,10 27,12 22,38l-11 68c-2,9 -6,13 -16,18l-186 108c-9,5 -18,5 -23,-4l-34 -59zm238 -137c5,7 2,17 -5,21 -8,4 -17,2 -21,-6 -5,-8 -2,-17 5,-21 7,-5 17,-2 21,6z"/>
   <path class="fil11" d="M64 503c-1,-1 -1,-1 0,-1 0,-1 0,-1 0,-1l30 -17c0,-1 1,-1 1,-1 1,0 1,1 1,1l5 8c0,0 0,1 0,1 0,1 0,1 -1,1l-19 11 6 10 14 -8c0,0 1,-1 1,0 0,0 1,0 1,0l4 8c0,0 1,1 0,1 0,0 0,1 0,1l-14 8 8 14c0,1 0,2 -1,3l-9 5c-1,0 -2,0 -2,-1l-25 -43z"/>
   <path id="1" class="fil11" d="M104 480c0,-1 0,-1 0,-2 0,0 0,0 1,-1l20 -11c2,-1 4,-2 6,-3 3,0 5,0 7,1 2,0 4,1 6,3 2,1 4,3 5,5 1,1 1,3 2,4 0,2 0,3 0,5 0,1 0,3 -1,4 0,2 -1,3 -1,4l16 11c1,0 1,0 2,1 0,0 0,0 1,0 0,1 0,1 0,1 0,1 -1,1 -1,1l-11 6c0,1 -1,1 -1,1 0,0 -1,-1 -1,-1l-16 -10 -5 3 8 14c1,1 1,2 0,2l-10 6c0,0 0,0 -1,0 0,0 -1,0 -1,-1l-25 -43zm32 -1c0,0 0,-1 -1,-1 -1,-1 -1,-1 -2,-1 -1,-1 -1,-1 -2,-1 -1,0 -2,0 -2,1 -1,0 -2,0 -2,0 -1,1 -1,1 -2,1l-4 3 6 11 6 -3c1,0 1,-1 1,-1 0,0 1,0 1,0 1,-1 1,-1 2,-2 0,-1 0,-2 0,-2 0,-1 0,-2 0,-3 0,0 0,-1 -1,-2z"/>
   <path id="2" class="fil11" d="M148 454c0,0 0,-1 0,-1 0,0 0,-1 0,-1l31 -18c1,0 1,0 2,0 0,0 0,0 1,1l4 8c0,0 0,0 0,1 0,0 0,1 0,1l-21 12 5 7 15 -9c1,0 1,0 2,0 0,0 0,0 0,1l4 7c1,0 1,0 0,1 0,0 0,0 0,1l-16 9 5 7 21 -12c1,0 1,0 2,1l4 8c1,0 1,0 0,1 1,0 0,1 0,1l-32 18c0,1 -1,1 -1,1 0,0 -1,-1 -1,-1l-25 -44z"/>
   <path id="3" class="fil11" d="M190 430c0,0 0,-1 0,-1 0,-1 0,-1 1,-1l30 -18c1,0 1,0 2,0 0,0 1,0 1,1l4 7c0,1 1,1 0,2 0,0 0,0 0,1l-21 11 5 8 15 -9c1,0 1,0 2,0 0,0 0,0 1,0l3 7c1,1 1,1 1,1 0,1 -1,1 -1,1l-16 9 5 8 21 -12c1,0 1,0 2,1l5 8c0,0 0,0 0,0 0,1 0,1 -1,2l-32 18c0,0 -1,0 -1,0 0,0 -1,0 -1,0l-25 -44z"/>
   <path class="fil12" d="M216 349c4,-1 9,-1 14,1l64 23c25,10 27,12 22,38l-11 68c-2,9 -6,13 -16,18l-186 108c-6,4 -12,5 -17,2 1,-1 3,-1 4,-2l186 -108c9,-5 14,-9 16,-18l11 -68c5,-26 3,-28 -22,-38l-64 -23c0,0 -1,-1 -1,-1z"/>
   <path class="fil12" d="M266 395c2,0 5,1 7,2 -3,-1 -7,0 -10,2 -7,4 -10,13 -5,21 3,6 10,9 17,7 -3,2 -6,3 -9,3 -10,0 -17,-8 -17,-17 0,-10 7,-18 17,-18z"/>
   <path class="fil3 str1" d="M46 542l-34 -58c-5,-10 -1,-17 8,-23l186 -107c10,-6 15,-7 24,-4l64 23c25,10 27,12 22,38l-11 68c-2,9 -6,13 -16,18l-186 108c-9,5 -18,5 -23,-4l-34 -59zm238 -137c5,7 2,17 -5,21 -8,4 -17,2 -21,-6 -5,-8 -2,-17 5,-21 7,-5 17,-2 21,6z"/>
   <path class="fil3 str4" d="M271 412c0,0 47,-58 123,-58 77,0 116,156 34,133 -80,-24 0,-160 182,-28"/>
   <g>
    <path class="fil5 str2" d="M221 709c45,-18 37,-10 55,-55 18,45 9,37 54,55 -45,18 -36,9 -54,54 -18,-45 -10,-36 -55,-54z"/>
    <path class="fil2" d="M276 654c18,45 9,37 54,55 -45,18 -36,9 -54,54 0,-49 16,-47 43,-54 -27,-8 -43,-9 -43,-55z"/>
    <path class="fil3 str2" d="M221 709c45,-18 37,-10 55,-55 18,45 9,37 54,55 -45,18 -36,9 -54,54 -18,-45 -10,-36 -55,-54z"/>
   </g>
   <path class="fil5 str2" d="M894 331c46,-19 37,-10 55,-55 18,45 9,36 55,55 -46,18 -37,9 -55,54 -18,-45 -9,-36 -55,-54z"/>
   <path class="fil2" d="M949 276c18,45 9,36 55,55 -46,18 -37,9 -55,54 0,-49 17,-47 43,-54 -27,-8 -43,-9 -43,-55z"/>
   <path class="fil3 str2" d="M894 331c46,-19 37,-10 55,-55 18,45 9,36 55,55 -46,18 -37,9 -55,54 -18,-45 -9,-36 -55,-54z"/>
  </g>
 </g>
</svg>
